<?xml version="1.0" encoding="utf-8"?>
    <!DOCTYPE svg PUBLIC "-//W3C//DTD SVG 1.1//EN" "http://www.w3.org/Graphics/SVG/1.1/DTD/svg11.dtd">
    <svg version="1.1" id="filesvg" xmlns="http://www.w3.org/2000/svg" x="0px" y="0px"
        width="324px" height="324px" preserveAspectRatio="xMinYMin meet" viewBox="0 0 324 324" enable-background="new 0 0 324 324" xml:space="preserve">

<g id="group1">
	<path fill="#CBCBCB" d="M0,220.32c0-36.722,0-73.438,0-110.16l2.687,0.576l2.743-0.158c6.743,8.455,13.485,16.915,20.228,25.37
		c6.61,4.436,13.22,8.872,19.83,13.314c4.104,21.009,20.648,23.464,37.649,25.249l3.044,0.126l3.047-0.032
		c2.74,4.474,5.48,8.948,8.217,13.422c4.727-0.171,9.451-0.349,14.175-0.52c1.231-0.088,2.461-0.126,3.696-0.12
		c4.736,2.456,9.473,4.904,14.209,7.354c3.689,2.044,7.375,4.088,11.065,6.132c10.609,7.897,23.443,24.225,31.413,22.117
		c24.841-6.55,32.429,13.384,46.769,22.914c-1.648,0.031-3.209,0.411-4.687,1.139c-34.586-0.095-69.172-0.189-103.759-0.284
		c-6.398-17.511-19.231-23.452-36.782-22.459c-0.848,8.29-1.5,14.694-2.079,20.357c-20.332,1.38-30.22-32.514-52.346-10.384
		c-3.993-2.602-7.983-5.195-11.976-7.797C4.762,224.427,2.379,222.371,0,220.32z"/>
	<path fill="#BEBEBE" d="M19.117,234.274c22.126-22.13,32.014,11.764,52.346,10.384
		c0.579-5.663,1.231-12.067,2.079-20.357c17.551-0.993,30.384,4.948,36.782,22.459c0,2.062,0.256,4.088,0.769,6.087
		c3.857,30.875,30.616,26.452,50.436,32.723c7.005,10.625,14.014,21.25,21.019,31.875c-0.37,2.189-0.737,4.373-1.107,6.557
		c-15.121,0-30.239,0-45.36,0c-8.477-2.203-16.956-4.405-25.439-6.613c-0.459-2.069-0.991-4.12-1.601-6.151
		c-4.019-2.315-8.037-4.632-12.055-6.954l0.478,0.475c-0.212-1.955-0.43-3.911-0.651-5.86c-0.032-30.45-23.889-37.107-45.721-45.796
		c-4.025-0.063-8.053-0.127-12.081-0.19c-6.293-2.392-12.581-4.784-18.871-7.176C19.797,241.912,19.456,238.096,19.117,234.274z"/>
	<path fill="#414141" d="M182.547,317.444c-7.005-10.625-14.014-21.25-21.019-31.875
		l1.892-1.524c11.546,0.5,23.098,1.537,34.634,1.379c15.615-0.215,12.954-9.853,9.211-19.61c2.271-6.259,4.547-12.511,6.818-18.77
		c1.478-0.728,3.038-1.107,4.687-1.139c4.872-4.253,9.748-8.505,14.621-12.751c8.574-6.448,17.148-12.897,25.724-19.346
		c4.338,8.575,8.676,17.144,13.014,25.718c-4.373,8.492-8.742,16.984-13.112,25.477c-4.259,19.668-8.518,39.33-12.776,58.998
		c-15.121,0-30.238,0-45.359,0C194.77,321.817,188.657,319.633,182.547,317.444z"/>
	<path fill="#D0D0D0" d="M0,58.32c0-4.322,0-8.638,0-12.96
		c15.162-6.157,30.321-12.314,45.483-18.472c10.742-2.55,21.484-5.107,32.226-7.663c10.771,4.385,21.538,8.764,32.305,13.149
		c0.035,10.758,0.069,21.516,0.104,32.273C90.407,64.129,68.23,42.215,51.935,71.35c-2.326,2.221-4.651,4.442-6.977,6.67
		c-4.787-3.12-9.41-8.505-14.396-8.872C20.478,68.414,10.198,70.413,0,71.28c0-2.158,0-4.322,0-6.48C0,62.642,0,60.478,0,58.32z"/>
	<path fill="#CFCFCF" d="M187.92,0c19.439,0,38.88,0,58.319,0
		c-2.101,10.802-4.201,21.61-6.306,32.413c-9.803,0.962-19.604,1.917-30.498,2.987c4.629,12.562,7.732,20.991,10.837,29.426
		c-15.982-9.53-30.606-24.496-51.856-12.973c-2.177-0.019-4.356-0.032-6.537-0.044c-4.176-4.373-8.353-8.739-12.526-13.112
		c-3.392-11.15-0.661-17.048,11.844-20.883C171.005,14.808,179.077,6.151,187.92,0z"/>
	<path fill="#343434" d="M324,110.16c0,10.802,0,21.598,0,32.4
		c-15.1,0.006-30.201,0.019-45.301,0.025c-8.761,2.126-17.522,4.259-26.283,6.385c-10.065-11.314-20.133-22.629-32.385-36.399
		c12.372-8.511,22.348-15.364,32.321-22.224c-0.791,10.353-1.585,20.712-2.392,31.229c33.953,9.657,27.036-14.169,28.539-30.736
		c6.461,2.177,12.919,4.347,19.38,6.518C306.588,101.63,315.292,105.895,324,110.16z"/>
	<path fill="#444444" d="M297.88,97.358c-6.461-2.171-12.919-4.341-19.38-6.518
		c-4.524-4.506-9.049-9.011-13.57-13.517c8.527-26.546,8.739-52.479-5.73-77.323c8.642,0,17.279,0,25.92,0
		c4.439,8.404,8.882,16.801,13.321,25.205C298.254,49.258,298.067,73.312,297.88,97.358z"/>
	<path fill="#BFBFBF" d="M259.2,0c14.47,24.844,14.258,50.777,5.73,77.323
		c-4.202,2.05-8.403,4.107-12.603,6.157c-18.845-1.923-37.688-3.847-56.532-5.771c8.334-2.189,16.665-4.373,24.996-6.562
		c27.417-2.519,20.978-21.762,19.143-38.734c2.104-10.802,4.205-21.61,6.306-32.413C250.559,0,254.881,0,259.2,0z"/>
	<path fill="#C0C0C0" d="M110.015,32.375C99.247,27.989,88.48,23.61,77.709,19.225
		c-1.019-3.797-2.041-7.594-3.06-11.391c-9.723,6.353-19.446,12.707-29.167,19.054C30.321,33.045,15.162,39.203,0,45.36
		c0-6.48,0-12.96,0-19.44C10.799,17.282,21.601,8.638,32.4,0c28.081,0,56.159,0,84.24,0c2.161,10.796,4.322,21.598,6.483,32.394
		C118.753,32.387,114.384,32.381,110.015,32.375z"/>
	<path fill="#373737" d="M259.016,265.002c4.37-8.492,8.739-16.984,13.112-25.477
		c6.645-2.095,13.289-4.195,19.937-6.29c-0.158,17.288-0.319,34.583-0.478,51.871c6.315,4.266,12.628,8.524,18.943,12.79
		c-4.151,8.701-8.3,17.402-12.451,26.104c-6.479,0-12.96,0-19.439,0C283.621,300.503,276.077,281.171,259.016,265.002z"/>
	<path fill="#C1C1C1" d="M123.123,32.394C120.962,21.598,118.801,10.796,116.64,0
		c23.759,0,47.521,0,71.28,0c-8.844,6.151-16.915,14.808-26.724,17.813c-12.505,3.835-15.235,9.733-11.844,20.883
		C140.608,36.596,131.866,34.495,123.123,32.394z"/>
	<path fill="#535353" d="M297.88,97.358c0.187-24.047,0.374-48.1,0.561-72.153
		c8.521,11.036,17.038,22.079,25.56,33.115c0,17.282,0,34.558,0,51.84C315.292,105.895,306.588,101.63,297.88,97.358z"/>
	<path fill="#464646" d="M71.28,324c-15.121,0-30.239,0-45.36,0
		c4.227-15.011,8.458-30.027,12.685-45.038c2.474-0.095,4.945-0.189,7.419-0.284c10.59,6.885,21.18,13.77,31.771,20.648
		c-0.003,1.702-0.003,3.404,0.003,5.113c-2.167,4.259-4.338,8.511-6.505,12.77C71.29,319.475,71.283,321.735,71.28,324z"/>
	<path fill="#494949" d="M278.7,142.585c15.1-0.006,30.201-0.019,45.301-0.025
		c0,4.322,0,8.638,0,12.96c-10.68,13.086-21.361,26.173-32.04,39.26c-4.524-8.803-9.046-17.605-13.567-26.407
		c1.965-4.335,3.927-8.663,5.892-12.998c-1.763-1.841-3.521-3.677-5.28-5.518C278.903,147.433,278.801,145.009,278.7,142.585z"/>
	<path fill="#535353" d="M0,71.28c10.198-0.867,20.478-2.866,30.562-2.132
		c4.987,0.367,9.609,5.752,14.396,8.872c-1.683,10.511-3.366,21.022-5.05,31.533c-11.492,0.341-22.987,0.683-34.479,1.025
		l-2.743,0.158L0,110.16C0,97.2,0,84.24,0,71.28z"/>
	<path fill="#252525" d="M259.016,265.002c17.061,16.169,24.604,35.501,19.624,58.998
		c-10.799,0-21.602,0-32.4,0C250.499,304.333,254.757,284.67,259.016,265.002z"/>
	<path fill="#343434" d="M38.605,278.962C34.377,293.973,30.147,308.99,25.92,324
		c-8.641,0-17.279,0-25.92,0c0-12.961,0-25.921,0-38.881c6.452-4.379,12.903-8.758,19.354-13.137
		c0.209-1.689,0.383-3.379,0.525-5.075c1.867-0.513,3.737-1.019,5.61-1.513C29.862,269.919,34.232,274.438,38.605,278.962z"/>
	<path fill="#BCBCBC" d="M324,58.32c-8.521-11.036-17.039-22.079-25.56-33.115
		C294.001,16.801,289.559,8.404,285.12,0C297.663,0,310.205,0,324,0C324,19.434,324,38.874,324,58.32z"/>
	<path fill="#363636" d="M291.96,194.78c10.679-13.087,21.36-26.173,32.04-39.26
		c0,12.96,0,25.92,0,38.88c-10.815,6.372-21.627,12.751-32.441,19.124C291.695,207.278,291.828,201.026,291.96,194.78z"/>
	<path fill="#B3B3B3" d="M324,239.76c0,12.96,0,25.92,0,38.88
		c-6.208-0.095-12.416-0.19-18.624-0.291c-2.06-14.865-4.116-29.729-6.177-44.601c1.823-0.285,3.585-0.785,5.284-1.5
		C310.99,234.749,317.495,237.254,324,239.76z"/>
	<path fill="#2C2C2C" d="M324,239.76c-6.506-2.506-13.011-5.012-19.517-7.512
		c-4.31-6.239-8.615-12.479-12.925-18.725c10.814-6.373,21.626-12.752,32.441-19.124C324,209.518,324,224.642,324,239.76z"/>
	<path fill="#D1D1D1" d="M32.4,0C21.601,8.638,10.799,17.282,0,25.92C0,17.282,0,8.638,0,0
		C10.799,0,21.601,0,32.4,0z"/>
	<path fill="#404040" d="M305.376,278.349c6.208,0.101,12.416,0.196,18.624,0.291
		c0,6.479,0,12.96,0,19.439c-4.205,0.114-8.41,0.229-12.619,0.342l-0.851-0.524c-6.315-4.266-12.628-8.524-18.943-12.79
		C296.185,282.855,300.779,280.602,305.376,278.349z"/>
	<path fill="#434343" d="M19.354,271.976C12.903,276.362,6.452,280.741,0,285.12
		c0-4.321,0-8.638,0-12.96c0-2.157,0-4.321,0-6.479s0-4.322,0-6.48c4.512,0.083,9.027,0.171,13.536,0.247
		c-0.206,1.728-0.281,3.462-0.237,5.202C15.317,267.091,17.336,269.534,19.354,271.976z"/>
	<path fill="#434343" d="M19.117,234.274c0.339,3.822,0.68,7.638,1.022,11.46l-2.186,1.753
		c-1.643,1.746-3.285,3.493-4.923,5.239c-4.344-2.164-8.686-4.322-13.03-6.486c0-2.157,0-4.322,0-6.479c0-2.158,0-4.322,0-6.48
		c0-2.157,0-4.322,0-6.479c2.379-0.107,4.762-0.216,7.141-0.323C11.134,229.079,15.124,231.672,19.117,234.274z"/>
	<path fill="#404040" d="M298.08,324c4.151-8.701,8.3-17.402,12.451-26.104l0.851,0.524
		c4.209,6.366,8.414,12.732,12.619,19.099C315.359,319.678,306.721,321.842,298.08,324z"/>
	<path fill="#B3B3B3" d="M324,317.52c-4.205-6.366-8.41-12.732-12.619-19.099
		c4.209-0.113,8.414-0.228,12.619-0.342C324,304.56,324,311.04,324,317.52z"/>
	<path fill="#535353" d="M110.647,317.387c8.477,2.208,16.956,4.41,25.433,6.613
		c-10.799,0-21.601,0-32.4,0c0-2.158,0.003-4.322,0.003-6.48C106.005,317.476,108.325,317.431,110.647,317.387z"/>
	<path fill="#373737" d="M0,246.24c4.344,2.164,8.686,4.322,13.03,6.486
		c1.401-0.057,2.806-0.107,4.211-0.146l2.848,0.494c-0.598,1.93-1.12,3.885-1.57,5.854c-1.667,0.082-3.328,0.259-4.98,0.525
		C9.027,259.371,4.512,259.283,0,259.2C0,254.877,0,250.562,0,246.24z"/>
	<path fill="#B7B7B7" d="M97.2,324c-2.161,0-4.319,0-6.48,0
		c-2.206-4.247-4.411-8.486-6.616-12.732c-0.437-2.373-0.876-4.746-1.313-7.126l2.192,0.607c2.104-0.12,4.211-0.228,6.315-0.316
		c2.054,0.12,4.107,0.229,6.164,0.323c0,0-0.478-0.475-0.478-0.469c0.398,2.311,0.794,4.62,1.193,6.923
		c-0.009,2.152-0.019,4.304-0.028,6.449C97.542,319.729,97.225,321.842,97.2,324z"/>
	<path fill="#4D4D4D" d="M84.104,311.268c2.205,4.246,4.411,8.485,6.616,12.732
		c-4.319,0-8.641,0-12.96,0c-0.2-1.867-0.503-3.709-0.912-5.537l1.835-1.867c1.942-1.942,3.885-3.886,5.828-5.828L84.104,311.268z"
		/>
	<path fill="#484848" d="M182.547,317.444c6.109,2.189,12.223,4.373,18.333,6.557
		c-6.48,0-12.96,0-19.44,0C181.81,321.817,182.177,319.633,182.547,317.444z"/>
	<path fill="#343434" d="M97.2,324c0.025-2.158,0.341-4.271,0.943-6.341
		c1.841-0.063,3.692-0.108,5.54-0.14c0,2.158-0.003,4.322-0.003,6.48C101.519,324,99.361,324,97.2,324z"/>
	<path fill="#343434" d="M76.849,318.463c0.408,1.828,0.712,3.67,0.912,5.537
		c-2.161,0-4.319,0-6.48,0c0.003-2.266,0.01-4.525,0.013-6.791C73.156,317.571,75.007,317.989,76.849,318.463z"/>
	<path fill="#343434" d="M0,265.68c0,2.158,0,4.322,0,6.479C0,270.002,0,267.838,0,265.68z
		"/>
	<path fill="#D1D1D1" d="M0,58.32c0,2.158,0,4.322,0,6.48C0,62.642,0,60.478,0,58.32z"/>
	<path fill="#535353" d="M7.141,226.477C4.762,226.584,2.379,226.693,0,226.8
		c0-2.158,0-4.322,0-6.48C2.379,222.371,4.762,224.427,7.141,226.477z"/>
	<path fill="#B7B7B7" d="M0,233.28c0,2.158,0,4.322,0,6.48C0,237.602,0,235.438,0,233.28z"
		/>
	<path fill="#494949" d="M214.083,247.043c-2.271,6.259-4.547,12.511-6.818,18.77
		c-12.899,4.228-25.797,8.461-38.696,12.694c-19.159-8.556-38.317-17.111-57.476-25.661c-0.512-1.999-0.769-4.024-0.769-6.087
		C144.911,246.854,179.498,246.949,214.083,247.043z"/>
	<path fill="#4D4D4D" d="M233.391,233.154c-4.873,4.246-9.749,8.498-14.621,12.751
		c-14.34-9.53-21.928-29.464-46.769-22.914c-7.97,2.107-20.804-14.22-31.413-22.117c2.629-3.91,5.259-7.828,7.888-11.738
		c0.25,1.626,0.667,3.208,1.253,4.746c16.744,20.503,37.007,12.029,56.864,6.897C222.029,206.189,233.552,214.833,233.391,233.154z"
		/>
	<path fill="#252525" d="M83.136,174.511c-17-1.785-33.545-4.24-37.649-25.249
		c2.154-0.456,4.309-0.912,6.464-1.367c8.616,2.189,17.231,4.385,25.851,6.582c2.284,4.676,4.569,9.353,6.853,14.029
		C83.737,170.404,83.23,172.403,83.136,174.511z"/>
	<path fill="#BEBEBE" d="M51.951,147.895c-2.155,0.456-4.31,0.911-6.464,1.367
		c-6.61-4.442-13.22-8.878-19.83-13.314c-1.585-20.737,17.82-11.72,26.129-18.434c4.376,2.171,8.755,4.341,13.131,6.512
		C60.595,131.979,56.273,139.934,51.951,147.895z"/>
	<path fill="#3D3D3D" d="M51.786,117.52c-8.309,6.708-27.714-2.31-26.129,18.428
		c-6.743-8.455-13.485-16.915-20.228-25.37c11.492-0.342,22.987-0.684,34.479-1.025c3.914,0.582,7.825,1.17,11.739,1.759
		C51.628,113.381,51.675,115.45,51.786,117.52z"/>
	<path fill="#E0E0E0" d="M115.314,187.388c-1.234-0.006-2.465,0.032-3.696,0.12
		c-2.724-4.321-5.452-8.644-8.173-12.959c0.288-1.994,0.307-4,0.063-6.012c6.53-0.019,13.061-0.038,19.592-0.057
		c0.082,2.335,0.167,4.67,0.25,7.012c-0.291,1.968-0.266,3.93,0.073,5.892C120.718,183.382,118.017,185.389,115.314,187.388z"/>
	<path fill="#C9C9C9" d="M148.477,189.135c-2.629,3.91-5.259,7.828-7.888,11.738
		c-3.689-2.044-7.375-4.088-11.065-6.132c0.048-4.113,0.098-8.227,0.146-12.346c6.293-0.652,12.587-1.298,18.883-1.943
		C148.527,183.345,148.502,186.237,148.477,189.135z"/>
	<path fill="#C1C1C1" d="M103.443,174.542c2.724,4.322,5.452,8.645,8.176,12.966
		c-4.724,0.171-9.448,0.349-14.175,0.52c0.12-4.259,0.24-8.524,0.351-12.79C99.668,174.985,101.554,174.757,103.443,174.542z"/>
	<path fill="#C1C1C1" d="M129.669,182.396c-0.047,4.119-0.098,8.232-0.146,12.346
		c-4.736-2.449-9.473-4.897-14.209-7.354c2.702-1.999,5.404-4.006,8.109-6.005C125.538,181.529,127.619,181.871,129.669,182.396z"/>
	<path fill="#434343" d="M97.804,175.245c-0.12,4.259-0.24,8.524-0.36,12.783
		c-2.737-4.475-5.477-8.948-8.217-13.422c0.003,0,2.772,0.671,2.772,0.671c1.044-0.316,2.098-0.614,3.151-0.892L97.804,175.245z"/>
	<path fill="#C2C2C2" d="M83.136,174.511c0.095-2.107,0.601-4.107,1.519-6.005
		c2.199-0.165,4.401-0.335,6.601-0.5l-0.386,0.696c0.376,2.189,0.753,4.379,1.13,6.575c0,0-2.769-0.671-2.772-0.671l-3.047,0.032
		L83.136,174.511z"/>
	<path fill="#B3B3B3" d="M77.795,299.339c-10.59-6.892-21.18-13.776-31.771-20.661
		c1.689-8.524,3.376-17.048,5.066-25.578c21.832,8.688,45.689,15.346,45.724,45.79c-1.86-0.418-3.746-0.658-5.661-0.728
		c-2.477,0.006-4.948,0.013-7.419,0.025C81.699,298.283,79.719,298.663,77.795,299.339z"/>
	<path fill="#3B3B3B" d="M111.093,252.846c19.159,8.55,38.317,17.105,57.476,25.661
		c-1.715,1.848-3.434,3.689-5.148,5.537l-1.892,1.524C141.709,279.298,114.95,283.721,111.093,252.846z"/>
	<path fill="#585858" d="M51.09,253.1c-1.69,8.53-3.376,17.054-5.066,25.578
		c-2.474,0.095-4.945,0.189-7.419,0.284c-4.373-4.524-8.743-9.043-13.109-13.561c0.304-1.969,0.661-3.93,1.073-5.879
		c4.233-2.335,8.464-4.677,12.694-7.012l-0.25,0.398C43.038,252.973,47.065,253.037,51.09,253.1z"/>
	<path fill="#535353" d="M20.139,245.734c6.29,2.392,12.577,4.784,18.871,7.176
		c0.003,0,0.253-0.398,0.253-0.398c-6.391,0.189-12.783,0.373-19.174,0.563l-2.848-0.494c0.443-1.67,0.68-3.366,0.712-5.094
		L20.139,245.734z"/>
	<path fill="#434343" d="M103.683,317.52c-1.848,0.031-3.699,0.076-5.54,0.14
		c0.016-2.146,0.025-4.297,0.035-6.449c3.62,0.013,7.239,0.02,10.862,0.025c0.61,2.031,1.142,4.082,1.601,6.151
		C108.325,317.431,106.005,317.476,103.683,317.52z"/>
	<path fill="#535353" d="M109.04,311.236c-3.623-0.006-7.243-0.013-10.862-0.025
		c-0.399-2.303-0.794-4.612-1.193-6.923C101.003,306.604,105.021,308.92,109.04,311.236z"/>
	<path fill="#535353" d="M91.16,298.163c1.908,0.069,3.794,0.31,5.654,0.728
		c0.218,1.955,0.437,3.911,0.648,5.866c-2.057-0.095-4.11-0.203-6.17-0.323C90.97,302.351,90.929,300.257,91.16,298.163z"/>
	<path fill="#4E4E4E" d="M291.559,213.524c4.31,6.245,8.615,12.485,12.925,18.725
		c-1.699,0.715-3.461,1.215-5.284,1.5c-2.379-0.171-4.755-0.342-7.135-0.513c-6.647,2.095-13.292,4.195-19.937,6.29
		c-4.338-8.574-8.676-17.143-13.014-25.718l0.019,0.007c13.309-13.562,11.087-29.3,6.376-45.392c1.769-2.215,3.534-4.43,5.303-6.638
		c2.528,2.196,5.053,4.392,7.578,6.588c4.524,8.802,9.046,17.604,13.57,26.407C291.828,201.026,291.695,207.278,291.559,213.524z"/>
	<path fill="#343434" d="M233.391,233.154c0.161-18.32-11.362-26.965-26.797-32.375
		c0.452-6.359,0.905-12.72,1.357-19.079c6.271-0.12,12.542-0.24,18.816-0.367c6.516,2.215,13.033,4.43,19.551,6.645
		c4.271,8.612,8.543,17.225,12.814,25.838l-0.019-0.007C250.54,220.256,241.965,226.706,233.391,233.154z"/>
	<path fill="#353535" d="M163.42,284.044c1.715-1.848,3.434-3.689,5.148-5.537
		c12.899-4.233,25.797-8.467,38.696-12.694c3.743,9.758,6.404,19.396-9.211,19.61C186.518,285.582,174.966,284.544,163.42,284.044z"
		/>
	<path fill="#C0C0C0" d="M123.123,32.394c8.743,2.101,17.485,4.202,26.23,6.303
		c4.174,4.373,8.351,8.739,12.526,13.112c1.89,3.834,3.778,7.676,5.67,11.511l1.405,2.189c-11.334,3.892-22.667,7.777-34.004,11.669
		c-4.025,2.677-8.053,5.36-12.078,8.037c-4.221-2.993-8.438-5.98-12.659-8.973c-0.032-3.86-0.063-7.727-0.095-11.593
		c-0.035-10.758-0.069-21.516-0.104-32.273C114.384,32.381,118.753,32.387,123.123,32.394z"/>
	<path fill="#BEBEBE" d="M110.119,64.648c0.032,3.867,0.063,7.733,0.095,11.593
		c-8.641,0.816-17.285,1.626-25.93,2.437c-6.477-0.747-12.957-1.494-19.434-2.247c-4.306-1.696-8.612-3.386-12.916-5.082
		C68.23,42.215,90.407,64.129,110.119,64.648z"/>
	<path fill="#B4B4B4" d="M51.935,71.35c4.303,1.696,8.609,3.386,12.916,5.082
		c-4.401,11.631-8.802,23.256-13.204,34.88c-3.914-0.588-7.825-1.177-11.739-1.759c1.684-10.511,3.367-21.022,5.05-31.533
		C47.284,75.792,49.609,73.571,51.935,71.35z"/>
	<path fill="#B4B4B4" d="M45.483,26.888c9.72-6.347,19.443-12.701,29.167-19.054
		c1.019,3.797,2.041,7.594,3.06,11.391C66.967,21.781,56.226,24.338,45.483,26.888z"/>
	<path fill="#E0E0E0" d="M239.934,32.413c1.835,16.972,8.274,36.216-19.143,38.734
		c-0.161-2.107-0.332-4.214-0.519-6.322c-3.104-8.435-6.208-16.864-10.837-29.426C220.33,34.33,230.131,33.375,239.934,32.413z"/>
	<path fill="#C1C1C1" d="M220.273,64.825c0.187,2.107,0.357,4.215,0.519,6.322
		c-8.331,2.189-16.662,4.373-24.996,6.562c-4.629-1.778-9.258-3.557-13.887-5.334c-2.452-2.316-4.904-4.632-7.356-6.949
		c-1.87-0.291-3.737-0.266-5.598,0.083l-1.405-2.189c0.288-3.822,0.579-7.645,0.867-11.467
		C189.667,40.329,204.291,55.295,220.273,64.825z"/>
	<path fill="#D1D1D1" d="M168.417,51.853c-0.288,3.822-0.579,7.645-0.867,11.467
		c-1.892-3.835-3.78-7.676-5.67-11.511C164.06,51.821,166.24,51.833,168.417,51.853z"/>
	<path fill="#474747" d="M181.909,72.375c4.629,1.778,9.258,3.556,13.887,5.334
		c18.845,1.924,37.688,3.848,56.532,5.771c0.01,2.285,0.016,4.575,0.025,6.866c-9.974,6.86-19.949,13.713-32.321,22.224
		c12.252,13.77,22.319,25.085,32.385,36.399c-8.584,2.285-17.168,4.569-25.749,6.854c-6.496-1.879-12.992-3.759-19.487-5.632
		c-8.521-0.544-17.042-1.082-25.562-1.62c-11.568-8.474-21.114-22.914-38.852-13.125c-2.357-3.639-4.714-7.271-7.072-10.91
		c4.838-15.865,16.602-31.843-0.743-47.36c11.336-3.892,22.67-7.777,34.004-11.669c1.86-0.348,3.728-0.374,5.598-0.083
		C177.004,67.743,179.457,70.059,181.909,72.375z M183.538,129.359c15.95-25.255,15.95-25.255-5.708-35.861
		C179.495,103.952,180.93,112.976,183.538,129.359z"/>
	<path fill="#383838" d="M226.664,155.824c8.585-2.284,17.169-4.569,25.753-6.854
		c8.761-2.126,17.522-4.259,26.283-6.385c0.102,2.423,0.203,4.847,0.301,7.271c-0.271,1.841-0.579,3.677-0.921,5.505
		c-2.423,2.139-4.844,4.284-7.268,6.423c-1.769,2.208-3.534,4.423-5.303,6.638c-6.397,6.518-12.796,13.037-19.19,19.554
		c-6.518-2.215-13.035-4.43-19.551-6.645C226.734,172.834,226.699,164.329,226.664,155.824z"/>
	<path fill="#282828" d="M252.353,90.347c-0.01-2.291-0.016-4.582-0.025-6.866
		c4.199-2.05,8.4-4.107,12.603-6.157c4.521,4.506,9.046,9.011,13.57,13.517c-1.503,16.567,5.414,40.393-28.539,30.736
		C250.768,111.059,251.562,100.7,252.353,90.347z"/>
	<path fill="#535353" d="M292.065,233.236c2.38,0.171,4.756,0.342,7.135,0.513
		c2.061,14.871,4.117,29.735,6.177,44.601c-4.598,2.253-9.191,4.506-13.789,6.758C291.746,267.819,291.907,250.524,292.065,233.236z
		"/>
	<path fill="#4D4D4D" d="M76.849,318.463c-1.841-0.475-3.692-0.893-5.556-1.254
		c2.167-4.259,4.338-8.511,6.505-12.764c1.665-0.051,3.332-0.151,4.993-0.304c0.437,2.38,0.876,4.753,1.313,7.126l0.408-0.5
		c-1.943,1.942-3.886,3.886-5.828,5.828L76.849,318.463z"/>
	<path fill="#434343" d="M82.791,304.142c-1.661,0.152-3.329,0.253-4.993,0.304
		c-0.006-1.715-0.006-3.417-0.003-5.119c1.924-0.664,3.904-1.044,5.945-1.139c0.417,2.183,0.832,4.372,1.243,6.562L82.791,304.142z"
		/>
	<path fill="#B3B3B3" d="M270.812,161.785c2.424-2.139,4.845-4.284,7.268-6.423
		l3.102-0.006l3.104,0.019c-1.965,4.335-3.927,8.663-5.892,12.998C275.865,166.177,273.34,163.981,270.812,161.785z"/>
	<path fill="#C2C2C2" d="M284.285,155.375l-3.104-0.019l-3.102,0.006
		c0.342-1.829,0.649-3.664,0.921-5.505C280.763,151.698,282.522,153.533,284.285,155.375z"/>
	<path fill="#B3B3B3" d="M26.569,259.523c-0.412,1.949-0.769,3.91-1.073,5.879
		c-1.879,0.487-3.75,0.993-5.616,1.506c-2.196-0.753-4.389-1.506-6.582-2.259c-0.044-1.74,0.032-3.475,0.237-5.202
		c1.655-0.26,3.316-0.437,4.983-0.519C21.203,259.125,23.886,259.32,26.569,259.523z"/>
	<path fill="#585858" d="M13.298,264.649c2.193,0.753,4.386,1.506,6.582,2.259
		c-0.143,1.696-0.316,3.386-0.525,5.075C17.336,269.534,15.317,267.091,13.298,264.649z"/>
	<path fill="#343434" d="M17.953,247.487c-0.032,1.728-0.269,3.424-0.712,5.094
		c-1.405,0.038-2.81,0.089-4.211,0.146C14.668,250.98,16.311,249.233,17.953,247.487z"/>
	<path fill="#C2C2C2" d="M26.569,259.523c-2.683-0.203-5.366-0.398-8.05-0.595
		c0.45-1.969,0.972-3.924,1.57-5.854c6.391-0.19,12.783-0.374,19.174-0.563C35.033,254.846,30.802,257.188,26.569,259.523z"/>
	<path fill="#D1D1D1" d="M84.983,304.75c-0.411-2.189-0.826-4.379-1.243-6.562
		c2.465-0.013,4.936-0.02,7.413-0.025c-0.225,2.095-0.183,4.188,0.139,6.271C89.195,304.522,87.088,304.629,84.983,304.75z"/>
	<path fill="#B3B3B3" d="M78.684,316.596c1.942-1.942,3.885-3.886,5.828-5.828
		C82.569,312.71,80.626,314.654,78.684,316.596z"/>
	<path fill="#D7D7D7" d="M142.766,135.447c17.738-9.79,27.284,4.651,38.852,13.125
		c-8.606,13.34-17.216,26.679-25.822,40.019c-2.022,1.766-4.044,3.525-6.065,5.291c-0.585-1.538-1.003-3.12-1.253-4.746
		c0.025-2.898,0.05-5.79,0.076-8.683c-1.838-3.771-3.673-7.543-5.509-11.308c-2.224-2.43-4.449-4.854-6.669-7.277
		C138.504,153.059,140.636,144.256,142.766,135.447z"/>
	<path fill="#B3B3B3" d="M149.73,193.881c2.021-1.766,4.043-3.525,6.065-5.291
		c12.912-2.341,25.822-4.676,38.734-7.018c4.474,0.045,8.948,0.089,13.422,0.127c-0.452,6.359-0.905,12.72-1.357,19.079
		C186.737,205.911,166.474,214.384,149.73,193.881z"/>
	<path fill="#CBCBCB" d="M51.951,147.895c4.322-7.96,8.645-15.915,12.966-23.87
		l3.082-0.051l3.05,0.456c2.25,10.017,4.5,20.028,6.752,30.046C69.182,152.28,60.566,150.084,51.951,147.895z"/>
	<path fill="#B7B7B7" d="M77.801,154.476c-2.253-10.018-4.502-20.029-6.752-30.046
		c2.354-0.797,4.708-1.588,7.062-2.379c10.631,0.481,21.262,0.968,31.897,1.449c0.297,1.848,0.646,3.689,1.038,5.519
		c-22.73,4.803-19.497,22.793-19.791,38.987c-2.199,0.165-4.401,0.335-6.601,0.5C82.37,163.829,80.085,159.152,77.801,154.476z"/>
	<path fill="#535353" d="M78.111,122.051c-2.354,0.791-4.708,1.582-7.062,2.379
		l-3.05-0.456l-3.082,0.051c-4.376-2.17-8.755-4.341-13.131-6.512c-0.111-2.063-0.158-4.132-0.139-6.202
		c4.401-11.625,8.802-23.25,13.204-34.88c6.477,0.753,12.957,1.5,19.434,2.247C82.228,93.137,80.168,107.591,78.111,122.051z"/>
	<path fill="#DADADA" d="M91.255,168.005c0.294-16.194-2.939-34.185,19.791-38.987
		c4.034,0.531,8.065,1.057,12.1,1.588c-3.291,13.682-7.806,27.875,13.229,31.261c2.221,2.424,4.445,4.847,6.669,7.277l0.143-0.171
		c-6.695-0.165-13.39-0.329-20.085-0.494c-6.531,0.019-13.062,0.038-19.592,0.057c-2.177,0.285-4.357,0.569-6.537,0.854
		c-1.984-0.677-4.019-0.905-6.104-0.689L91.255,168.005z"/>
	<path fill="#464646" d="M143.044,169.145c1.835,3.765,3.67,7.537,5.509,11.308
		c-6.296,0.646-12.59,1.291-18.883,1.943c-2.05-0.525-4.132-0.867-6.246-1.013c-0.338-1.962-0.364-3.924-0.073-5.892
		c6.613-2.177,13.226-4.348,19.835-6.518L143.044,169.145z"/>
	<path fill="#D1D1D1" d="M143.187,168.974c-6.61,2.17-13.223,4.341-19.835,6.518
		c-0.083-2.341-0.168-4.677-0.25-7.012C129.796,168.645,136.491,168.809,143.187,168.974z"/>
	<path fill="#535353" d="M96.972,169.391c2.18-0.285,4.36-0.569,6.537-0.854
		c0.244,2.012,0.225,4.018-0.063,6.012c-1.892,0.208-3.778,0.437-5.651,0.689c0.009,0.006-2.645-0.854-2.645-0.854
		C95.89,172.764,96.498,171.1,96.972,169.391z"/>
	<path fill="#343434" d="M96.972,169.391c-0.475,1.709-1.082,3.373-1.822,4.993
		c-1.054,0.278-2.107,0.576-3.151,0.892c-0.377-2.196-0.753-4.385-1.13-6.575C92.954,168.486,94.988,168.714,96.972,169.391z"/>
	<path fill="#434343" d="M246.319,187.977c6.395-6.518,12.793-13.036,19.19-19.554
		c4.711,16.092,6.933,31.831-6.376,45.392C254.862,205.202,250.59,196.589,246.319,187.977z"/>
	<path fill="#C1C1C1" d="M207.952,181.7c-4.474-0.038-8.948-0.082-13.422-0.127
		c4.218-10.46,8.433-20.92,12.65-31.381c6.495,1.873,12.991,3.752,19.487,5.632c0.031,8.505,0.066,17.01,0.101,25.509
		C220.494,181.459,214.223,181.58,207.952,181.7z"/>
	<path fill="#474747" d="M123.146,130.606c-4.034-0.531-8.065-1.057-12.1-1.588
		c-0.392-1.829-0.74-3.67-1.038-5.519c4.287-12.757,8.578-25.521,12.865-38.285c4.025-2.677,8.053-5.36,12.078-8.037
		c17.345,15.517,5.581,31.495,0.743,47.36C131.511,126.562,127.328,128.587,123.146,130.606z"/>
	<path fill="#4F4F4F" d="M122.873,85.214c-4.287,12.764-8.578,25.528-12.865,38.285
		c-10.635-0.481-21.266-0.968-31.897-1.449c2.057-14.46,4.116-28.914,6.173-43.373c8.645-0.81,17.289-1.62,25.93-2.437
		C114.435,79.234,118.652,82.221,122.873,85.214z"/>
	<path fill="#D1D1D1" d="M181.909,72.375c-2.452-2.316-4.904-4.632-7.356-6.949
		C177.004,67.743,179.457,70.059,181.909,72.375z"/>
	<path fill="#D3D3D3" d="M207.18,150.192c-4.218,10.46-8.433,20.92-12.65,31.381
		c-12.912,2.342-25.822,4.677-38.734,7.018c8.606-13.339,17.216-26.679,25.822-40.019
		C190.138,149.11,198.659,149.647,207.18,150.192z"/>
	<path fill="#DEDEDE" d="M123.146,130.606c4.183-2.019,8.366-4.043,12.548-6.068
		c2.357,3.639,4.715,7.271,7.072,10.91c-2.129,8.809-4.262,17.611-6.391,26.42C115.339,158.481,119.854,144.288,123.146,130.606z"/>
	<path fill="#363636" d="M183.538,129.359c-2.607-16.383-4.043-25.407-5.708-35.861
		C199.488,104.104,199.488,104.104,183.538,129.359z"/>
</g>
</svg>
